<svg width="120" height="120" viewBox="0 0 64 64" xmlns="http://www.w3.org/2000/svg" role="img" aria-label="Partwright faceted solid mark">
      <defs>
        <linearGradient id="h_tbl" x1="0.15" y1="0" x2="0.7" y2="1"><stop offset="0" stop-color="#5eead4"/><stop offset="1" stop-color="#2dd4bf"/></linearGradient>
        <linearGradient id="h_cL" x1="0" y1="0" x2="0.5" y2="1"><stop offset="0" stop-color="#2dd4bf"/><stop offset="1" stop-color="#14b8a6"/></linearGradient>
        <linearGradient id="h_cM" x1="0.2" y1="0" x2="0.6" y2="1"><stop offset="0" stop-color="#14b8a6"/><stop offset="1" stop-color="#0d9488"/></linearGradient>
        <linearGradient id="h_cR" x1="0" y1="0" x2="0.6" y2="1"><stop offset="0" stop-color="#fcd34d"/><stop offset="1" stop-color="#f59e0b"/></linearGradient>
        <linearGradient id="h_pL" x1="0.2" y1="0" x2="0.6" y2="1"><stop offset="0" stop-color="#0d9488"/><stop offset="1" stop-color="#0f172a"/></linearGradient>
        <linearGradient id="h_pM" x1="0.5" y1="0" x2="0.5" y2="1"><stop offset="0" stop-color="#115e57"/><stop offset="1" stop-color="#0f172a"/></linearGradient>
        <linearGradient id="h_pR" x1="0.6" y1="0" x2="0.4" y2="1"><stop offset="0" stop-color="#0e7d72"/><stop offset="1" stop-color="#0b1220"/></linearGradient>
      </defs>
      <g stroke="#0a1322" stroke-width="0.7" stroke-linejoin="round">
        <polygon points="24,14 40,14 44,19 37.5,21.5 26.5,21.5 20,19" fill="url(#h_tbl)"/>
        <polygon points="20,19 26.5,21.5 22.5,38 12.5,28.5" fill="url(#h_cL)"/>
        <polygon points="26.5,21.5 37.5,21.5 41.5,38 22.5,38" fill="url(#h_cM)"/>
        <polygon points="37.5,21.5 44,19 51.5,28.5 41.5,38" fill="url(#h_cR)"/>
        <polygon points="12.5,28.5 22.5,38 32,53.5" fill="url(#h_pL)"/>
        <polygon points="22.5,38 41.5,38 32,53.5" fill="url(#h_pM)"/>
        <polygon points="41.5,38 51.5,28.5 32,53.5" fill="url(#h_pR)"/>
      </g>
      <polyline points="24,14 40,14 44,19" fill="none" stroke="#ffffff" stroke-width="1.1" stroke-linecap="round" stroke-linejoin="round" opacity="0.5"/>
    </svg>