<svg width="120" height="120" viewBox="0 0 64 64" xmlns="http://www.w3.org/2000/svg" role="img" aria-label="Partwright — impossible P loop: bowl as closed rectangular frame, top beam in front, bottom beam behind">
  <defs>
    <radialGradient id="h-shadow" cx="0.5" cy="0.5" r="0.5">
      <stop offset="0" stop-color="#000" stop-opacity="0.5"/><stop offset="1" stop-color="#000" stop-opacity="0"/>
    </radialGradient>
    <linearGradient id="h-ttop" x1="6" y1="2" x2="58" y2="34" gradientUnits="userSpaceOnUse">
      <stop offset="0" stop-color="#99f6e4"/><stop offset="1" stop-color="#5eead4"/>
    </linearGradient>
    <linearGradient id="h-tside" x1="8" y1="6" x2="46" y2="58" gradientUnits="userSpaceOnUse">
      <stop offset="0" stop-color="#2dd4bf"/><stop offset="1" stop-color="#14b8a6"/>
    </linearGradient>
    <linearGradient id="h-btop" x1="6" y1="26" x2="52" y2="44" gradientUnits="userSpaceOnUse">
      <stop offset="0" stop-color="#2dd4bf"/><stop offset="1" stop-color="#14b8a6"/>
    </linearGradient>
    <linearGradient id="h-rtop" x1="30" y1="4" x2="54" y2="40" gradientUnits="userSpaceOnUse">
      <stop offset="0" stop-color="#5eead4"/><stop offset="1" stop-color="#2dd4bf"/>
    </linearGradient>
  </defs>

  <!-- contact shadow -->
  <ellipse cx="30" cy="60.5" rx="22" ry="2.3" fill="url(#h-shadow)"/>

  <!-- 1. RIGHT bowl beam (furthest back) -->
  <polygon points="45.0,8.0 45.0,39.0 50.0,36.1 50.0,5.1" fill="#0f766e"/>
  <polygon points="36.0,8.0 45.0,8.0 50.0,5.1 41.0,5.1" fill="url(#h-rtop)"/>
  <polygon points="36.0,8.0 45.0,8.0 45.0,39.0 36.0,39.0" fill="url(#h-tside)"/>

  <!-- 2. BOTTOM bowl beam (drawn second — left end goes BEHIND stem) -->
  <polygon points="45.0,30.0 45.0,39.0 50.0,36.1 50.0,27.1" fill="#0a6b63"/>
  <polygon points="14.5,30.0 45.0,30.0 50.0,27.1 19.5,27.1" fill="url(#h-btop)"/>
  <polygon points="14.5,30.0 45.0,30.0 45.0,39.0 14.5,39.0" fill="#14b8a6"/>

  <!-- 3. STEM (covers bottom beam left end = bottom BEHIND stem) -->
  <polygon points="23.5,8.0 23.5,56.0 28.5,53.1 28.5,5.1" fill="url(#h-tside)"/>
  <polygon points="14.5,8.0 23.5,8.0 28.5,5.1 19.5,5.1" fill="#5eead4"/>
  <polygon points="14.5,8.0 23.5,8.0 23.5,56.0 14.5,56.0" fill="#14b8a6"/>

  <!-- 4. TOP bowl beam (drawn LAST — IN FRONT of stem at top-left junction) -->
  <polygon points="45.0,8.0 45.0,17.0 50.0,14.1 50.0,5.1" fill="#0f766e"/>
  <polygon points="14.5,8.0 45.0,8.0 50.0,5.1 19.5,5.1" fill="url(#h-ttop)"/>
  <polygon points="14.5,8.0 45.0,8.0 45.0,17.0 14.5,17.0" fill="#2dd4bf"/>

  <!-- crisp dark edge lines -->
  <g fill="none" stroke="#06302b" stroke-width="0.6" stroke-linejoin="round" stroke-linecap="round" opacity="0.55">
    <polygon points="14.5,8.0 23.5,8.0 28.5,5.1 28.5,53.1 23.5,56.0 14.5,56.0"/>
    <polygon points="14.5,8.0 45.0,8.0 50.0,5.1 50.0,14.1 45.0,17.0 14.5,17.0"/>
    <polygon points="36.0,8.0 45.0,8.0 50.0,5.1 50.0,36.1 45.0,39.0 36.0,39.0"/>
    <path d="M23.5,30.0 L45.0,30.0 L50.0,27.1 L50.0,36.1 L45.0,39.0 L23.5,39.0"/>
    <path d="M14.5,30.0 L14.5,39.0"/>
  </g>

  <!-- lit highlight crest -->
  <path d="M14.5,8.0 L19.5,5.1 L50.0,5.1" fill="none" stroke="#d6fff5" stroke-width="0.7" stroke-linecap="round" opacity="0.7"/>

  <!-- amber specular — two impossible crossing points -->
  <!-- TOP-LEFT: top beam passes IN FRONT of stem -->
  <circle cx="14.5" cy="8.0" r="1.8" fill="#f59e0b" opacity="0.82"/>
  <circle cx="14.5" cy="8.0" r="0.9" fill="#fde68a" opacity="0.9"/>
  <!-- BOTTOM-LEFT: stem passes IN FRONT of bottom beam -->
  <circle cx="14.5" cy="39.0" r="1.8" fill="#f59e0b" opacity="0.72"/>
  <circle cx="14.5" cy="39.0" r="0.9" fill="#fde68a" opacity="0.85"/>
</svg>
