<svg width="120" height="120" viewBox="0 0 64 64" role="img" aria-label="Partwright">
      <defs>
        <linearGradient id="h-top" x1="14" y1="13" x2="48" y2="35" gradientUnits="userSpaceOnUse">
          <stop offset="0" stop-color="#5eead4"/><stop offset="1" stop-color="#2dd4bf"/>
        </linearGradient>
        <linearGradient id="h-left" x1="14" y1="28" x2="32" y2="49" gradientUnits="userSpaceOnUse">
          <stop offset="0" stop-color="#15b3a4"/><stop offset="1" stop-color="#0c8579"/>
        </linearGradient>
        <linearGradient id="h-right" x1="32" y1="37" x2="50" y2="49" gradientUnits="userSpaceOnUse">
          <stop offset="0" stop-color="#0d9488"/><stop offset="1" stop-color="#0a6f66"/>
        </linearGradient>
      </defs>
      <!-- lower slab -->
      <path d="M32 37 L50 28 L50 40 L32 49 Z" fill="url(#h-right)"/>
      <path d="M14 28 L32 37 L32 49 L14 40 Z" fill="url(#h-left)"/>
      <path d="M32 19 L50 28 L32 37 L14 28 Z" fill="url(#h-top)"/>
      <!-- stepped boss -->
      <path d="M32 33 L42 28 L42 19.5 L32 24.5 Z" fill="#0c8579"/>
      <path d="M22 28 L32 33 L32 24.5 L22 19.5 Z" fill="#15b3a4"/>
      <path d="M32 14 L42 19.5 L32 25 L22 19.5 Z" fill="#5eead4"/>
      <!-- bore through the top -->
      <ellipse cx="32" cy="19.2" rx="4.2" ry="2.1" fill="#0a564f"/>
      <ellipse cx="32" cy="18.4" rx="4.0" ry="2.0" fill="#06302c"/>
      <!-- single amber rim-light on the highest leading edge -->
      <path d="M22 19.5 L32 14" fill="none" stroke="#fcd34d" stroke-width="1.1" stroke-linecap="round"/>
    </svg>